<svg width="241" height="101" viewBox="0 0 241 101" fill="none" xmlns="http://www.w3.org/2000/svg">
<g clip-path="url(#clip0_13_3)">
<path d="M138.47 50.4756H132.02V74.5256H123.02V50.4756H118.37V42.7656H123.02V39.7656C123.02 31.9956 127.87 28.0056 135.24 28.0056C136.381 28.0152 137.518 28.1493 138.63 28.4056V37.4056C137.66 37.0165 136.625 36.813 135.58 36.8056C135.108 36.7682 134.633 36.8334 134.188 36.9969C133.744 37.1604 133.34 37.4183 133.004 37.7528C132.669 38.0873 132.41 38.4904 132.245 38.9346C132.08 39.3787 132.014 39.8533 132.05 40.3256V42.7156H138.5L138.47 50.4756ZM152.02 74.5256H142.92V28.6856H152.02V74.5256Z" fill="black"/>
<path d="M172.22 40.7756C175.632 40.7697 178.97 41.7765 181.809 43.6686C184.649 45.5607 186.863 48.2529 188.172 51.4043C189.48 54.5557 189.824 58.0246 189.16 61.3716C188.496 64.7186 186.853 67.7933 184.44 70.2061C182.028 72.619 178.953 74.2616 175.606 74.9258C172.259 75.5901 168.79 75.2461 165.639 73.9376C162.487 72.629 159.795 70.4146 157.903 67.5749C156.011 64.7352 155.004 61.3979 155.01 57.9856C154.982 55.7178 155.408 53.4672 156.263 51.3664C157.117 49.2657 158.384 47.3573 159.988 45.7535C161.592 44.1498 163.5 42.8831 165.601 42.0282C167.702 41.1733 169.952 40.7474 172.22 40.7756ZM172.22 66.4256C176.87 66.4256 180.22 62.5656 180.22 57.9856C180.27 56.9043 180.1 55.8241 179.721 54.8104C179.341 53.7967 178.76 52.8706 178.012 52.088C177.264 51.3055 176.365 50.683 175.369 50.258C174.374 49.833 173.302 49.6145 172.22 49.6156C170.041 49.6908 167.976 50.6092 166.462 52.1773C164.947 53.7453 164.1 55.8404 164.1 58.0206C164.1 60.2009 164.947 62.296 166.462 63.864C167.976 65.432 170.041 66.3505 172.22 66.4256Z" fill="black"/>
<path d="M198.93 41.4456L204.78 63.4456L210.63 45.9656L209.03 41.4557H218.03L225.74 63.4557L231.45 41.4557H240.79L230.96 74.5357H221.52L214.94 56.3956L208.79 74.5257H199.29L189.52 41.4456H198.93Z" fill="black"/>
<path d="M50.79 100.596C78.4042 100.596 100.79 78.2099 100.79 50.5956C100.79 22.9814 78.4042 0.595642 50.79 0.595642C23.1757 0.595642 0.789978 22.9814 0.789978 50.5956C0.789978 78.2099 23.1757 100.596 50.79 100.596Z" fill="#00EF8B"/>
<path d="M72.73 42.7756H58.61V56.8956H72.73V42.7756Z" fill="white"/>
<path d="M44.5 62.1856C44.5 63.2339 44.1891 64.2586 43.6068 65.1302C43.0244 66.0017 42.1966 66.6811 41.2282 67.0822C40.2597 67.4833 39.1941 67.5883 38.166 67.3838C37.1379 67.1793 36.1935 66.6745 35.4523 65.9333C34.7111 65.1921 34.2063 64.2477 34.0018 63.2196C33.7973 62.1915 33.9023 61.1259 34.3034 60.1574C34.7046 59.189 35.3839 58.3612 36.2554 57.7788C37.127 57.1965 38.1517 56.8856 39.2 56.8856H44.5V42.7756H39.2C35.361 42.7756 31.6083 43.914 28.4164 46.0468C25.2244 48.1796 22.7366 51.211 21.2675 54.7577C19.7984 58.3045 19.414 62.2072 20.1629 65.9723C20.9119 69.7375 22.7605 73.196 25.475 75.9106C28.1896 78.6251 31.6481 80.4737 35.4133 81.2227C39.1784 81.9716 43.0811 81.5872 46.6279 80.1181C50.1746 78.649 53.206 76.1612 55.3388 72.9693C57.4716 69.7773 58.61 66.0246 58.61 62.1856V56.8856H44.5V62.1856Z" fill="white"/>
<path d="M63.91 35.7156H79.79V21.5956H63.91C58.7637 21.6009 53.8298 23.6476 50.1909 27.2865C46.5519 30.9255 44.5053 35.8594 44.5 41.0056V42.7756H58.61V41.0056C58.6126 39.6017 59.1722 38.2562 60.1658 37.2644C61.1595 36.2727 62.5061 35.7156 63.91 35.7156Z" fill="white"/>
<path d="M44.5 56.8856H58.61V42.7756H44.5V56.8856Z" fill="#00EF8B"/>
</g>
<defs>
<clipPath id="clip0_13_3">
<rect width="240" height="100" fill="white" transform="translate(0.789978 0.595642)"/>
</clipPath>
</defs>
</svg>
