<svg width="17" height="17" viewBox="0 0 17 17" fill="none" xmlns="http://www.w3.org/2000/svg">
<path d="M6.5906 11.0255C4.7235 9.15647 4.74913 6.15994 6.57935 4.31957C6.58279 4.31582 6.58685 4.31176 6.5906 4.30801L8.6906 2.20801C10.5428 0.355829 13.5562 0.356079 15.4081 2.20801C17.2603 4.05989 17.2603 7.07363 15.4081 8.9255L14.2485 10.0851C13.941 10.3926 13.4115 10.1882 13.3956 9.75362C13.3753 9.19981 13.276 8.64341 13.0928 8.1061C13.0307 7.92416 13.0751 7.72291 13.211 7.58697L13.62 7.178C14.4958 6.30219 14.5233 4.87613 13.6561 3.99176C12.7803 3.09867 11.3409 3.09336 10.4584 3.97582L8.35841 6.07551C7.47744 6.95647 7.48113 8.38041 8.35841 9.25769C8.47407 9.37312 8.59057 9.46281 8.68157 9.52547C8.74594 9.56968 8.7991 9.62832 8.83679 9.69671C8.87448 9.76511 8.89567 9.84137 8.89866 9.9194C8.91104 10.2496 8.79404 10.5899 8.5331 10.8508L7.87516 11.5088C7.70263 11.6813 7.43197 11.7025 7.23191 11.5629C7.0028 11.4029 6.7882 11.2231 6.5906 11.0255ZM2.18638 15.4299C4.03829 17.2819 7.05169 17.2821 8.90388 15.4299L11.0039 13.3299C11.0076 13.3262 11.0117 13.3221 11.0151 13.3184C12.8453 11.478 12.871 8.48147 11.0039 6.61244C10.8063 6.41486 10.5917 6.23504 10.3626 6.07507C10.1625 5.93544 9.89185 5.95666 9.71935 6.12916L9.06141 6.78713C8.80047 7.04807 8.68347 7.38835 8.69585 7.71856C8.69884 7.7966 8.72003 7.87286 8.75772 7.94126C8.79541 8.00965 8.84857 8.06829 8.91294 8.1125C9.00394 8.17516 9.12044 8.26485 9.2361 8.38028C10.1134 9.25756 10.1171 10.6815 9.2361 11.5625L7.1361 13.6621C6.25363 14.5446 4.81422 14.5393 3.93844 13.6462C3.07125 12.7618 3.09869 11.3358 3.97454 10.46L4.3835 10.051C4.51944 9.91506 4.56379 9.71381 4.50172 9.53187C4.31847 8.99456 4.21916 8.43816 4.19891 7.88435C4.183 7.44979 3.65347 7.24541 3.34597 7.55291L2.18641 8.71247C0.33419 10.5643 0.33419 13.5781 2.18638 15.4299Z" fill="black"/>
</svg>
